<svg width="18" height="18" viewBox="0 0 18 18" fill="none" xmlns="http://www.w3.org/2000/svg">
<path d="M12.1425 1.5H5.8575C3.1275 1.5 1.5 3.1275 1.5 5.8575V12.135C1.5 14.8725 3.1275 16.5 5.8575 16.5H12.135C14.865 16.5 16.4925 14.8725 16.4925 12.1425V5.8575C16.5 3.1275 14.8725 1.5 12.1425 1.5ZM5.25 9.9825C4.71 9.9825 4.2675 9.54 4.2675 9C4.2675 8.46 4.71 8.0175 5.25 8.0175C5.79 8.0175 6.2325 8.46 6.2325 9C6.2325 9.54 5.79 9.9825 5.25 9.9825ZM9 9.9825C8.46 9.9825 8.0175 9.54 8.0175 9C8.0175 8.46 8.46 8.0175 9 8.0175C9.54 8.0175 9.9825 8.46 9.9825 9C9.9825 9.54 9.54 9.9825 9 9.9825ZM12.75 9.9825C12.21 9.9825 11.7675 9.54 11.7675 9C11.7675 8.46 12.21 8.0175 12.75 8.0175C13.29 8.0175 13.7325 8.46 13.7325 9C13.7325 9.54 13.29 9.9825 12.75 9.9825Z" fill="#171717"/>
</svg>
